# xmcd CD database file
# Copyright (C) 1993-1998 Ti Kan
# 
# Track frame offsets:
#     182
#     17977
#     32975
#     46155
#     61235
# 
# Disc length: 1334 seconds
# 
# Revision: 1
# Processed by: cddbd v1.4b41PL1 Copyright (c) Steve Scherf et al.
# Submitted via: DiscPlay 4.0.4
# 
DISCID=3b053405
DTITLE=Michelle Wright - New Kind of Love
DYEAR=1900
DGENRE=
TTITLE0=New Kind of Love
TTITLE1=All You Really Wanna Do
TTITLE2=Woman's Intuition
TTITLE3=The Dust Ain't Settled Yet
TTITLE4=Interview With Michelle Wright
EXTD=
EXTT0=
EXTT1=
EXTT2=
EXTT3=
EXTT4=
PLAYORDER=
